# xmcd CD database file
#
# Track frame offsets:
#	150
#	27241
#	49304
#	65702
#	87720
#	114269
#	138333
#	155251
#	168810
#	187503
#	209392
#	235039
#	250052
#	267835
#	284176
#
# Disc length: 4062 seconds
#
# Revision: 3
# Processed by: cddbd v1.5.2PL0 Copyright (c) Steve Scherf et al.
# Submitted via: CDex 1.70beta2
#
DISCID=d00fdc0f
DTITLE=Hotclub sampler - Hotclub sampler
DYEAR=2004
DGENRE=Jazz
TTITLE0=First Song
TTITLE1=Pat
TTITLE2=Blue bossa
TTITLE3=Angelo's Caprice
TTITLE4=The Next Step
TTITLE5=Mooch The Mooche
TTITLE6=September In The Rain
TTITLE7=Waltz For Debby
TTITLE8=My Heart Belongs To Daddy
TTITLE9=April Fools
TTITLE10=Troublant Bolero
TTITLE11=It Don't Mean A Thing
TTITLE12=Compassion
TTITLE13=All Of Me
TTITLE14=It's you Or No One
EXTD=YEAR: 2004
EXTT0=
EXTT1=
EXTT2=
EXTT3=
EXTT4=
EXTT5=
EXTT6=
EXTT7=
EXTT8=
EXTT9=
EXTT10=
EXTT11=
EXTT12=
EXTT13=
EXTT14=
PLAYORDER=
